<?xml version="1.0" encoding="UTF-8"?>
<svg id="Layer_2" data-name="Layer 2" xmlns="http://www.w3.org/2000/svg" viewBox="0 0 403.16 278.85">
  <defs>
    <style>
      .cls-1 {
        fill: #a51d33;
        stroke-width: 0px;
      }
    </style>
  </defs>
  <g id="Layer_1-2" data-name="Layer 1">
    <path class="cls-1" d="m403.1,10.68c.06-12.44-4.67-13.63-14.22-5.55-46.9,50.48-89.9,93.3-128.5,128.88-12.16-.45-24.35-1.24-36.47-2.55-23.11-3-24,24.26,0,14.19,9.12-1.62,18.19-2.6,27.2-3.16-116.05,105.38-190.51,143.08-209.12,124.41C-56.09,185.2,236.36-73.76,170.21,134.02c-3.33,7.11-1.11,6.66,2.89,3.55,43-42,39.67-93.28.44-90.22-84.74,2.44-211.55,126-162.66,209.33,51.35,56.3,133.89.81,256.93-114.83,13.71-.22,27.27.23,40.63.55-11.23,24.86-19.87,49.99-25.78,75.39-9.86,38.82,14.14,48.3,40,25.11,5.55-5.25,3.77-5.85-.45-3.11-33.65,26.26-22.63-29.7,9.19-97.11,15.72-.1,31.13-1.01,46.14-4.11,5.89-2.45,5.34-4.33-.88-4.48-13.3-.29-27.06-.18-41.13,0,16.05-32.68,36.63-67.28,59.13-96.07,5.4-9.77,9.03-19.09,8.44-27.34Zm-90.95,123.72c-12.02.14-24.2.21-36.45.01,27.37-25.92,56.69-54.67,88.07-85.73-20.61,28.23-37.87,56.8-51.62,85.72Z"/>
  </g>
</svg>